<?xml version="1.0" encoding="utf-8" standalone="no"?>
<!DOCTYPE svg PUBLIC "-//W3C//DTD SVG 1.1//EN"
  "http://www.w3.org/Graphics/SVG/1.1/DTD/svg11.dtd">
<svg xmlns:xlink="http://www.w3.org/1999/xlink" width="576pt" height="576pt" viewBox="0 0 576 576" xmlns="http://www.w3.org/2000/svg" version="1.1">
 <metadata>
  <rdf:RDF xmlns:dc="http://purl.org/dc/elements/1.1/" xmlns:cc="http://creativecommons.org/ns#" xmlns:rdf="http://www.w3.org/1999/02/22-rdf-syntax-ns#">
   <cc:Work>
    <dc:type rdf:resource="http://purl.org/dc/dcmitype/StillImage"/>
    <dc:date>2025-04-13T19:14:55.201072</dc:date>
    <dc:format>image/svg+xml</dc:format>
    <dc:creator>
     <cc:Agent>
      <dc:title>Matplotlib v3.8.3, https://matplotlib.org/</dc:title>
     </cc:Agent>
    </dc:creator>
   </cc:Work>
  </rdf:RDF>
 </metadata>
 <defs>
  <style type="text/css">*{stroke-linejoin: round; stroke-linecap: butt}</style>
 </defs>
 <g id="figure_1">
  <g id="patch_1">
   <path d="M 0 576 
L 576 576 
L 576 0 
L 0 0 
z
" style="fill: #ffffff"/>
  </g>
  <g id="axes_1">
   <g id="patch_2">
    <path d="M 288 541.636364 
C 355.26515 541.636364 419.784349 514.911636 467.347993 467.347993 
C 514.911636 419.784349 541.636364 355.26515 541.636364 288 
C 541.636364 220.73485 514.911636 156.215651 467.347993 108.652007 
C 419.784349 61.088364 355.26515 34.363636 288 34.363636 
C 220.73485 34.363636 156.215651 61.088364 108.652007 108.652007 
C 61.088364 156.215651 34.363636 220.73485 34.363636 288 
C 34.363636 355.26515 61.088364 419.784349 108.652007 467.347993 
C 156.215651 514.911636 220.73485 541.636364 288 541.636364 
L 288 541.636364 
z
" clip-path="url(#p422ee3e382)" style="fill: none; stroke: #000000; stroke-width: 0.88; stroke-linejoin: miter"/>
   </g>
   <g id="patch_3">
    <path d="M 135.818182 85.090909 
C 104.318978 108.715312 78.74933 139.35319 61.14074 174.57037 
C 43.53215 209.78755 34.363636 248.625995 34.363636 288 
" clip-path="url(#p422ee3e382)" style="fill: none; stroke: #ff8888; stroke-width: 0.4; stroke-linejoin: miter"/>
   </g>
   <g id="patch_4">
    <path d="M 34.363636 288 
C 34.363636 327.374005 43.53215 366.21245 61.14074 401.42963 
C 78.74933 436.64681 104.318978 467.284688 135.818182 490.909091 
" clip-path="url(#p422ee3e382)" style="fill: none; stroke: #ff8888; stroke-width: 0.4; stroke-linejoin: miter"/>
   </g>
   <g id="patch_5">
    <path d="M 159.444583 114.276463 
C 134.646206 135.918683 114.7669 162.62194 101.146903 192.585933 
C 87.526907 222.549925 80.479339 255.085791 80.479339 288 
" clip-path="url(#p422ee3e382)" style="fill: none; stroke: #ff8888; stroke-width: 0.4; stroke-linejoin: miter"/>
   </g>
   <g id="patch_6">
    <path d="M 80.479339 288 
C 80.479339 320.914209 87.526907 353.450075 101.146903 383.414067 
C 114.7669 413.37806 134.646206 440.081317 159.444583 461.723537 
" clip-path="url(#p422ee3e382)" style="fill: none; stroke: #ff8888; stroke-width: 0.4; stroke-linejoin: miter"/>
   </g>
   <g id="patch_7">
    <path d="M 181.442711 137.919311 
C 161.628629 157.568276 145.90046 180.947987 135.167832 206.706294 
C 124.435205 232.4646 118.909091 260.095168 118.909091 288 
" clip-path="url(#p422ee3e382)" style="fill: none; stroke: #ff8888; stroke-width: 0.4; stroke-linejoin: miter"/>
   </g>
   <g id="patch_8">
    <path d="M 118.909091 288 
C 118.909091 315.904832 124.435205 343.5354 135.167832 369.293706 
C 145.90046 395.052013 161.628629 418.431724 181.442711 438.080689 
" clip-path="url(#p422ee3e382)" style="fill: none; stroke: #ff8888; stroke-width: 0.4; stroke-linejoin: miter"/>
   </g>
   <g id="patch_9">
    <path d="M 201.71134 157.259606 
C 185.665048 175.033961 173.027287 195.611526 164.431172 217.961424 
C 155.835057 240.311323 151.426573 264.053995 151.426573 288 
" clip-path="url(#p422ee3e382)" style="fill: none; stroke: #ff8888; stroke-width: 0.4; stroke-linejoin: miter"/>
   </g>
   <g id="patch_10">
    <path d="M 151.426573 288 
C 151.426573 311.946005 155.835057 335.688677 164.431172 358.038576 
C 173.027287 380.388474 185.665048 400.966039 201.71134 418.740394 
" clip-path="url(#p422ee3e382)" style="fill: none; stroke: #ff8888; stroke-width: 0.4; stroke-linejoin: miter"/>
   </g>
   <g id="patch_11">
    <path d="M 220.287125 173.232415 
C 207.132364 189.300015 196.837522 207.51037 189.853251 227.066328 
C 182.86898 246.622286 179.298701 267.23427 179.298701 288 
" clip-path="url(#p422ee3e382)" style="fill: none; stroke: #ff8888; stroke-width: 0.4; stroke-linejoin: miter"/>
   </g>
   <g id="patch_12">
    <path d="M 179.298701 288 
C 179.298701 308.76573 182.86898 329.377714 189.853251 348.933672 
C 196.837522 368.48963 207.132364 386.699985 220.287125 402.767585 
" clip-path="url(#p422ee3e382)" style="fill: none; stroke: #ff8888; stroke-width: 0.4; stroke-linejoin: miter"/>
   </g>
   <g id="patch_13">
    <path d="M 288 34.363636 
C 260.738919 34.363636 233.655272 38.758707 207.793139 47.379418 
C 181.931007 56.000129 157.627047 68.73426 135.818182 85.090909 
" clip-path="url(#p422ee3e382)" style="fill: none; stroke: #ff8888; stroke-width: 0.4; stroke-linejoin: miter"/>
   </g>
   <g id="patch_14">
    <path d="M 135.818182 490.909091 
C 157.627047 507.26574 181.931007 519.999871 207.793139 528.620582 
C 233.655272 537.241293 260.738919 541.636364 288 541.636364 
" clip-path="url(#p422ee3e382)" style="fill: none; stroke: #ff8888; stroke-width: 0.4; stroke-linejoin: miter"/>
   </g>
   <g id="patch_15">
    <path d="M 294.186253 90.039911 
C 274.735735 94.416278 256.035982 101.635505 238.69054 111.464589 
C 221.345098 121.293673 205.542608 133.625716 191.793103 148.062696 
" clip-path="url(#p422ee3e382)" style="fill: none; stroke: #ff8888; stroke-width: 0.4; stroke-linejoin: miter"/>
   </g>
   <g id="patch_16">
    <path d="M 191.793103 427.937304 
C 205.542608 442.374284 221.345098 454.706327 238.69054 464.535411 
C 256.035982 474.364495 274.735735 481.583722 294.186253 485.960089 
" clip-path="url(#p422ee3e382)" style="fill: none; stroke: #ff8888; stroke-width: 0.4; stroke-linejoin: miter"/>
   </g>
   <g id="patch_17">
    <path d="M 440.181818 85.090909 
C 418.372953 68.73426 394.068993 56.000129 368.206861 47.379418 
C 342.344728 38.758707 315.261081 34.363636 288 34.363636 
" clip-path="url(#p422ee3e382)" style="fill: none; stroke: #ff8888; stroke-width: 0.4; stroke-linejoin: miter"/>
   </g>
   <g id="patch_18">
    <path d="M 288 541.636364 
C 315.261081 541.636364 342.344728 537.241293 368.206861 528.620582 
C 394.068993 519.999871 418.372953 507.26574 440.181818 490.909091 
" clip-path="url(#p422ee3e382)" style="fill: none; stroke: #ff8888; stroke-width: 0.4; stroke-linejoin: miter"/>
   </g>
   <g id="patch_19">
    <path d="M 307.51049 131.916084 
C 293.637509 137.696493 280.596902 145.300764 268.733678 154.527716 
C 256.870454 163.754668 246.290165 174.522205 237.272727 186.545455 
" clip-path="url(#p422ee3e382)" style="fill: none; stroke: #ff8888; stroke-width: 0.4; stroke-linejoin: miter"/>
   </g>
   <g id="patch_20">
    <path d="M 237.272727 389.454545 
C 246.290165 401.477795 256.870454 412.245332 268.733678 421.472284 
C 280.596902 430.699236 293.637509 438.303507 307.51049 444.083916 
" clip-path="url(#p422ee3e382)" style="fill: none; stroke: #ff8888; stroke-width: 0.4; stroke-linejoin: miter"/>
   </g>
   <g id="patch_21">
    <path d="M 419.890909 125.672727 
C 401.488176 120.305264 382.305978 118.106098 363.165979 119.169431 
C 344.025979 120.232764 325.205425 124.543194 307.51049 131.916084 
" clip-path="url(#p422ee3e382)" style="fill: none; stroke: #ff8888; stroke-width: 0.4; stroke-linejoin: miter"/>
   </g>
   <g id="patch_22">
    <path d="M 307.51049 444.083916 
C 325.205425 451.456806 344.025979 455.767236 363.165979 456.830569 
C 382.305978 457.893902 401.488176 455.694736 419.890909 450.327273 
" clip-path="url(#p422ee3e382)" style="fill: none; stroke: #ff8888; stroke-width: 0.4; stroke-linejoin: miter"/>
   </g>
   <g id="patch_23">
    <path d="M 414.818182 161.181818 
C 401.187641 161.181818 387.645818 163.379354 374.714751 167.689709 
C 361.783685 172.000064 349.631705 178.36713 338.727273 186.545455 
" clip-path="url(#p422ee3e382)" style="fill: none; stroke: #ff8888; stroke-width: 0.4; stroke-linejoin: miter"/>
   </g>
   <g id="patch_24">
    <path d="M 338.727273 389.454545 
C 349.631705 397.63287 361.783685 403.999936 374.714751 408.310291 
C 387.645818 412.620646 401.187641 414.818182 414.818182 414.818182 
" clip-path="url(#p422ee3e382)" style="fill: none; stroke: #ff8888; stroke-width: 0.4; stroke-linejoin: miter"/>
   </g>
   <g id="patch_25">
    <path d="M 429.737968 101.502674 
C 397.534848 84.327677 361.425611 75.78288 324.940359 76.703638 
C 288.455106 77.624396 252.822841 87.979693 221.527034 106.757177 
C 190.231226 125.534661 164.326075 152.101815 146.344111 183.861387 
C 128.362146 215.620959 118.909091 251.503131 118.909091 288 
" clip-path="url(#p422ee3e382)" style="fill: none; stroke: #ff8888; stroke-width: 0.88; stroke-linejoin: miter"/>
   </g>
   <g id="patch_26">
    <path d="M 118.909091 288 
C 118.909091 324.496869 128.362146 360.379041 146.344111 392.138613 
C 164.326075 423.898185 190.231226 450.465339 221.527034 469.242823 
C 252.822841 488.020307 288.455106 498.375604 324.940359 499.296362 
C 361.425611 500.21712 397.534848 491.672323 429.737968 474.497326 
" clip-path="url(#p422ee3e382)" style="fill: none; stroke: #ff8888; stroke-width: 0.88; stroke-linejoin: miter"/>
   </g>
   <g id="patch_27">
    <path d="M 513.713094 194.922435 
C 493.699206 164.568039 464.41888 141.463471 430.242414 129.057254 
C 396.065947 116.651037 358.782727 115.592727 323.957539 126.040283 
C 289.132352 136.487839 258.58855 157.894256 236.885014 187.064474 
C 215.181478 216.234692 203.454545 251.641437 203.454545 288 
" clip-path="url(#p422ee3e382)" style="fill: none; stroke: #ff8888; stroke-width: 0.88; stroke-linejoin: miter"/>
   </g>
   <g id="patch_28">
    <path d="M 203.454545 288 
C 203.454545 324.358563 215.181478 359.765308 236.885014 388.935526 
C 258.58855 418.105744 289.132352 439.512161 323.957539 449.959717 
C 358.782727 460.407273 396.065947 459.348963 430.242414 446.942746 
C 464.41888 434.536529 493.699206 411.431961 513.713094 381.077565 
" clip-path="url(#p422ee3e382)" style="fill: none; stroke: #ff8888; stroke-width: 0.88; stroke-linejoin: miter"/>
   </g>
   <g id="patch_29">
    <path d="M 506.652038 200.539185 
C 489.174421 182.187687 466.590756 169.489678 441.829736 164.09186 
C 417.068716 158.694042 391.249053 160.84029 367.719091 170.252274 
C 344.18913 179.664259 324.011962 195.916743 309.804201 216.902074 
C 295.596441 237.887404 288 262.657456 288 288 
" clip-path="url(#p422ee3e382)" style="fill: none; stroke: #ff8888; stroke-width: 0.88; stroke-linejoin: miter"/>
   </g>
   <g id="patch_30">
    <path d="M 288 288 
C 288 313.342544 295.596441 338.112596 309.804201 359.097926 
C 324.011962 380.083257 344.18913 396.335741 367.719091 405.747726 
C 391.249053 415.15971 417.068716 417.305958 441.829736 411.90814 
C 466.590756 406.510322 489.174421 393.812313 506.652038 375.460815 
" clip-path="url(#p422ee3e382)" style="fill: none; stroke: #ff8888; stroke-width: 0.88; stroke-linejoin: miter"/>
   </g>
   <g id="patch_31">
    <path d="M 496.877005 213.40107 
C 483.995757 206.531071 469.552063 203.113152 454.957962 203.481455 
C 440.363861 203.849758 426.110954 207.991877 413.592632 215.502871 
C 401.074309 223.013865 390.712248 233.640726 383.519462 246.344555 
C 376.326677 259.048384 372.545455 273.401252 372.545455 288 
" clip-path="url(#p422ee3e382)" style="fill: none; stroke: #ff8888; stroke-width: 0.88; stroke-linejoin: miter"/>
   </g>
   <g id="patch_32">
    <path d="M 372.545455 288 
C 372.545455 302.598748 376.326677 316.951616 383.519462 329.655445 
C 390.712248 342.359274 401.074309 352.986135 413.592632 360.497129 
C 426.110954 368.008123 440.363861 372.150242 454.957962 372.518545 
C 469.552063 372.886848 483.995757 369.468929 496.877005 362.59893 
" clip-path="url(#p422ee3e382)" style="fill: none; stroke: #ff8888; stroke-width: 0.88; stroke-linejoin: miter"/>
   </g>
   <g id="patch_33">
    <path d="M 519.256684 250.700535 
C 512.816061 247.265535 505.594213 245.556576 498.297163 245.740728 
C 491.000112 245.924879 483.873659 247.995939 477.614498 251.751435 
C 471.355336 255.506932 466.174306 260.820363 462.577913 267.172277 
C 458.98152 273.524192 457.090909 280.700626 457.090909 288 
" clip-path="url(#p422ee3e382)" style="fill: none; stroke: #ff8888; stroke-width: 0.88; stroke-linejoin: miter"/>
   </g>
   <g id="patch_34">
    <path d="M 457.090909 288 
C 457.090909 295.299374 458.98152 302.475808 462.577913 308.827723 
C 466.174306 315.179637 471.355336 320.493068 477.614498 324.248565 
C 483.873659 328.004061 491.000112 330.075121 498.297163 330.259272 
C 505.594213 330.443424 512.816061 328.734465 519.256684 325.299465 
" clip-path="url(#p422ee3e382)" style="fill: none; stroke: #ff8888; stroke-width: 0.88; stroke-linejoin: miter"/>
   </g>
   <g id="patch_35">
    <path d="M 516.387495 265.046483 
C 510.679139 265.591371 505.374394 268.24657 501.517084 272.489611 
C 497.659774 276.732652 495.520661 282.265697 495.520661 288 
" clip-path="url(#p422ee3e382)" style="fill: none; stroke: #ff8888; stroke-width: 0.88; stroke-linejoin: miter"/>
   </g>
   <g id="patch_36">
    <path d="M 495.520661 288 
C 495.520661 293.734303 497.659774 299.267348 501.517084 303.510389 
C 505.374394 307.75343 510.679139 310.408629 516.387495 310.953517 
" clip-path="url(#p422ee3e382)" style="fill: none; stroke: #ff8888; stroke-width: 0.88; stroke-linejoin: miter"/>
   </g>
   <g id="patch_37">
    <path d="M 39.386139 237.774977 
C 66.817566 243.31668 94.338833 248.403996 121.938634 253.034835 
C 149.538434 257.665674 177.212988 261.839402 204.950925 265.554304 
" clip-path="url(#p422ee3e382)" style="fill: none; stroke: #ff8888; stroke-width: 0.4; stroke-linejoin: miter"/>
   </g>
   <g id="patch_38">
    <path d="M 204.950925 310.445696 
C 177.212988 314.160598 149.538434 318.334326 121.938634 322.965165 
C 94.338833 327.596004 66.817566 332.68332 39.386139 338.225023 
" clip-path="url(#p422ee3e382)" style="fill: none; stroke: #ff8888; stroke-width: 0.4; stroke-linejoin: miter"/>
   </g>
   <g id="patch_39">
    <path d="M 53.874126 190.447552 
C 79.179117 200.991299 104.819335 210.711763 130.754364 219.593622 
C 156.689392 228.475481 182.905597 236.514066 209.361651 243.696705 
" clip-path="url(#p422ee3e382)" style="fill: none; stroke: #ff8888; stroke-width: 0.4; stroke-linejoin: miter"/>
   </g>
   <g id="patch_40">
    <path d="M 209.361651 332.303295 
C 182.905597 339.485934 156.689392 347.524519 130.754364 356.406378 
C 104.819335 365.288237 79.179117 375.008701 53.874126 385.552448 
" clip-path="url(#p422ee3e382)" style="fill: none; stroke: #ff8888; stroke-width: 0.4; stroke-linejoin: miter"/>
   </g>
   <g id="patch_41">
    <path d="M 76.24854 148.383653 
C 98.38329 162.977993 121.1923 176.523056 144.599941 188.973929 
C 168.007582 201.424802 191.987953 212.767708 216.461538 222.965035 
" clip-path="url(#p422ee3e382)" style="fill: none; stroke: #ff8888; stroke-width: 0.4; stroke-linejoin: miter"/>
   </g>
   <g id="patch_42">
    <path d="M 216.461538 353.034965 
C 191.987953 363.232292 168.007582 374.575198 144.599941 387.026071 
C 121.1923 399.476944 98.38329 413.022007 76.24854 427.616347 
" clip-path="url(#p422ee3e382)" style="fill: none; stroke: #ff8888; stroke-width: 0.4; stroke-linejoin: miter"/>
   </g>
   <g id="patch_43">
    <path d="M 104.332288 113.07837 
C 122.689859 130.56177 142.079399 146.928546 162.396475 162.090542 
C 182.71355 177.252539 203.921618 191.182486 225.90645 203.805356 
" clip-path="url(#p422ee3e382)" style="fill: none; stroke: #ff8888; stroke-width: 0.4; stroke-linejoin: miter"/>
   </g>
   <g id="patch_44">
    <path d="M 225.90645 372.194644 
C 203.921618 384.817514 182.71355 398.747461 162.396475 413.909458 
C 142.079399 429.071454 122.689859 445.43823 104.332288 462.92163 
" clip-path="url(#p422ee3e382)" style="fill: none; stroke: #ff8888; stroke-width: 0.4; stroke-linejoin: miter"/>
   </g>
   <g id="patch_45">
    <path d="M 212.594595 233.159705 
C 225.645016 237.634135 238.785348 241.841904 252.00739 245.780384 
C 265.229433 249.718865 278.530435 253.387239 291.902098 256.783217 
" clip-path="url(#p422ee3e382)" style="fill: none; stroke: #ff8888; stroke-width: 0.4; stroke-linejoin: miter"/>
   </g>
   <g id="patch_46">
    <path d="M 291.902098 319.216783 
C 278.530435 322.612761 265.229433 326.281135 252.00739 330.219616 
C 238.785348 334.158096 225.645016 338.365865 212.594595 342.840295 
" clip-path="url(#p422ee3e382)" style="fill: none; stroke: #ff8888; stroke-width: 0.4; stroke-linejoin: miter"/>
   </g>
   <g id="patch_47">
    <path d="M 237.272727 186.545455 
C 247.659145 194.335268 258.340792 201.72347 269.294069 208.693737 
C 280.247345 215.664003 291.464178 222.211198 302.919786 228.320856 
" clip-path="url(#p422ee3e382)" style="fill: none; stroke: #ff8888; stroke-width: 0.4; stroke-linejoin: miter"/>
   </g>
   <g id="patch_48">
    <path d="M 302.919786 347.679144 
C 291.464178 353.788802 280.247345 360.335997 269.294069 367.306263 
C 258.340792 374.27653 247.659145 381.664732 237.272727 389.454545 
" clip-path="url(#p422ee3e382)" style="fill: none; stroke: #ff8888; stroke-width: 0.4; stroke-linejoin: miter"/>
   </g>
   <g id="patch_49">
    <path d="M 302.919786 228.320856 
C 314.83183 234.673946 326.992745 240.548972 339.373482 245.931901 
C 351.754218 251.31483 364.344909 256.201371 377.115479 260.579853 
" clip-path="url(#p422ee3e382)" style="fill: none; stroke: #ff8888; stroke-width: 0.4; stroke-linejoin: miter"/>
   </g>
   <g id="patch_50">
    <path d="M 377.115479 315.420147 
C 364.344909 319.798629 351.754218 324.68517 339.373482 330.068099 
C 326.992745 335.451028 314.83183 341.326054 302.919786 347.679144 
" clip-path="url(#p422ee3e382)" style="fill: none; stroke: #ff8888; stroke-width: 0.4; stroke-linejoin: miter"/>
   </g>
   <g id="patch_51">
    <path d="M 338.727273 186.545455 
C 345.928341 196.146879 353.80183 205.225088 362.288371 213.711629 
C 370.774912 222.19817 379.853121 230.071659 389.454545 237.272727 
" clip-path="url(#p422ee3e382)" style="fill: none; stroke: #ff8888; stroke-width: 0.4; stroke-linejoin: miter"/>
   </g>
   <g id="patch_52">
    <path d="M 389.454545 338.727273 
C 379.853121 345.928341 370.774912 353.80183 362.288371 362.288371 
C 353.80183 370.774912 345.928341 379.853121 338.727273 389.454545 
" clip-path="url(#p422ee3e382)" style="fill: none; stroke: #ff8888; stroke-width: 0.4; stroke-linejoin: miter"/>
   </g>
   <g id="patch_53">
    <path d="M 53.874126 190.447552 
C 104.942453 211.726022 157.348497 229.639948 210.756282 244.074485 
C 264.164067 258.509021 318.459216 269.433255 373.293644 276.777152 
" clip-path="url(#p422ee3e382)" style="fill: none; stroke: #ff8888; stroke-width: 0.88; stroke-linejoin: miter"/>
   </g>
   <g id="patch_54">
    <path d="M 373.293644 299.222848 
C 318.459216 306.566745 264.164067 317.490979 210.756282 331.925515 
C 157.348497 346.360052 104.942453 364.273978 53.874126 385.552448 
" clip-path="url(#p422ee3e382)" style="fill: none; stroke: #ff8888; stroke-width: 0.88; stroke-linejoin: miter"/>
   </g>
   <g id="patch_55">
    <path d="M 135.818182 85.090909 
C 166.15836 125.54448 202.377574 161.234975 243.272902 190.977032 
C 284.168231 220.719089 329.281864 244.179756 377.115479 260.579853 
" clip-path="url(#p422ee3e382)" style="fill: none; stroke: #ff8888; stroke-width: 0.88; stroke-linejoin: miter"/>
   </g>
   <g id="patch_56">
    <path d="M 377.115479 315.420147 
C 329.281864 331.820244 284.168231 355.280911 243.272902 385.022968 
C 202.377574 414.765025 166.15836 450.45552 135.818182 490.909091 
" clip-path="url(#p422ee3e382)" style="fill: none; stroke: #ff8888; stroke-width: 0.88; stroke-linejoin: miter"/>
   </g>
   <g id="patch_57">
    <path d="M 288 34.363636 
C 288 73.737641 297.168513 112.576086 314.777103 147.793266 
C 332.385694 183.010447 357.955342 213.648325 389.454545 237.272727 
" clip-path="url(#p422ee3e382)" style="fill: none; stroke: #ff8888; stroke-width: 0.88; stroke-linejoin: miter"/>
   </g>
   <g id="patch_58">
    <path d="M 389.454545 338.727273 
C 357.955342 362.351675 332.385694 392.989553 314.777103 428.206734 
C 297.168513 463.423914 288 502.262359 288 541.636364 
" clip-path="url(#p422ee3e382)" style="fill: none; stroke: #ff8888; stroke-width: 0.88; stroke-linejoin: miter"/>
   </g>
   <g id="patch_59">
    <path d="M 440.181818 85.090909 
C 420.008994 111.988008 411.337989 145.833156 416.092769 179.116617 
C 420.847549 212.400079 438.648356 242.46354 465.545455 262.636364 
" clip-path="url(#p422ee3e382)" style="fill: none; stroke: #ff8888; stroke-width: 0.88; stroke-linejoin: miter"/>
   </g>
   <g id="patch_60">
    <path d="M 465.545455 313.363636 
C 438.648356 333.53646 420.847549 363.599921 416.092769 396.883383 
C 411.337989 430.166844 420.008994 464.011992 440.181818 490.909091 
" clip-path="url(#p422ee3e382)" style="fill: none; stroke: #ff8888; stroke-width: 0.88; stroke-linejoin: miter"/>
   </g>
   <g id="patch_61">
    <path d="M 522.125874 190.447552 
C 514.702748 193.540522 508.120418 198.354777 502.923712 204.491837 
C 497.727006 210.628896 494.063372 217.914631 492.236055 225.745989 
C 490.408738 233.577347 490.469585 241.732126 492.41356 249.535345 
C 494.357534 257.338563 498.12948 264.568817 503.417186 270.627646 
" clip-path="url(#p422ee3e382)" style="fill: none; stroke: #ff8888; stroke-width: 0.88; stroke-linejoin: miter"/>
   </g>
   <g id="patch_62">
    <path d="M 503.417186 305.372354 
C 498.12948 311.431183 494.357534 318.661437 492.41356 326.464655 
C 490.469585 334.267874 490.408738 342.422653 492.236055 350.254011 
C 494.063372 358.085369 497.727006 365.371104 502.923712 371.508163 
C 508.120418 377.645223 514.702748 382.459478 522.125874 385.552448 
" clip-path="url(#p422ee3e382)" style="fill: none; stroke: #ff8888; stroke-width: 0.88; stroke-linejoin: miter"/>
   </g>
   <g id="patch_63">
    <path d="M 536.613861 237.774977 
C 530.46958 239.016246 524.998396 242.492257 521.264257 247.527051 
C 517.530118 252.561845 515.791854 258.806438 516.387495 265.046483 
" clip-path="url(#p422ee3e382)" style="fill: none; stroke: #ff8888; stroke-width: 0.88; stroke-linejoin: miter"/>
   </g>
   <g id="patch_64">
    <path d="M 516.387495 310.953517 
C 515.791854 317.193562 517.530118 323.438155 521.264257 328.472949 
C 524.998396 333.507743 530.46958 336.983754 536.613861 338.225023 
" clip-path="url(#p422ee3e382)" style="fill: none; stroke: #ff8888; stroke-width: 0.88; stroke-linejoin: miter"/>
   </g>
   <g id="line2d_1">
    <path d="M 34.363636 288 
L 541.636364 288 
" clip-path="url(#p422ee3e382)" style="fill: none; stroke: #ff8888; stroke-width: 0.88; stroke-linecap: square"/>
   </g>
   <g id="text_1">
    <!-- 0.2 -->
    <g style="fill: #ff8888" transform="translate(117.661278 286.478182) rotate(-90) scale(0.06 -0.06)">
     <defs>
      <path id="DejaVuSans-30" d="M 2034 4250 
Q 1547 4250 1301 3770 
Q 1056 3291 1056 2328 
Q 1056 1369 1301 889 
Q 1547 409 2034 409 
Q 2525 409 2770 889 
Q 3016 1369 3016 2328 
Q 3016 3291 2770 3770 
Q 2525 4250 2034 4250 
z
M 2034 4750 
Q 2819 4750 3233 4129 
Q 3647 3509 3647 2328 
Q 3647 1150 3233 529 
Q 2819 -91 2034 -91 
Q 1250 -91 836 529 
Q 422 1150 422 2328 
Q 422 3509 836 4129 
Q 1250 4750 2034 4750 
z
" transform="scale(0.015625)"/>
      <path id="DejaVuSans-2e" d="M 684 794 
L 1344 794 
L 1344 0 
L 684 0 
L 684 794 
z
" transform="scale(0.015625)"/>
      <path id="DejaVuSans-32" d="M 1228 531 
L 3431 531 
L 3431 0 
L 469 0 
L 469 531 
Q 828 903 1448 1529 
Q 2069 2156 2228 2338 
Q 2531 2678 2651 2914 
Q 2772 3150 2772 3378 
Q 2772 3750 2511 3984 
Q 2250 4219 1831 4219 
Q 1534 4219 1204 4116 
Q 875 4013 500 3803 
L 500 4441 
Q 881 4594 1212 4672 
Q 1544 4750 1819 4750 
Q 2544 4750 2975 4387 
Q 3406 4025 3406 3419 
Q 3406 3131 3298 2873 
Q 3191 2616 2906 2266 
Q 2828 2175 2409 1742 
Q 1991 1309 1228 531 
z
" transform="scale(0.015625)"/>
     </defs>
     <use xlink:href="#DejaVuSans-30"/>
     <use xlink:href="#DejaVuSans-2e" x="63.623047"/>
     <use xlink:href="#DejaVuSans-32" x="95.410156"/>
    </g>
   </g>
   <g id="text_2">
    <!-- 0.2 -->
    <g style="fill: #ff8888" transform="translate(293.971246 78.510608) rotate(-10.391167) scale(0.06 -0.06)">
     <use xlink:href="#DejaVuSans-30"/>
     <use xlink:href="#DejaVuSans-2e" x="63.623047"/>
     <use xlink:href="#DejaVuSans-32" x="95.410156"/>
    </g>
   </g>
   <g id="text_3">
    <!-- 0.2 -->
    <g style="fill: #ff8888" transform="translate(289.881497 496.739434) rotate(-169.608833) scale(0.06 -0.06)">
     <use xlink:href="#DejaVuSans-30"/>
     <use xlink:href="#DejaVuSans-2e" x="63.623047"/>
     <use xlink:href="#DejaVuSans-32" x="95.410156"/>
    </g>
   </g>
   <g id="text_4">
    <!-- 0.5 -->
    <g style="fill: #ff8888" transform="translate(202.206733 286.478182) rotate(-90) scale(0.06 -0.06)">
     <defs>
      <path id="DejaVuSans-35" d="M 691 4666 
L 3169 4666 
L 3169 4134 
L 1269 4134 
L 1269 2991 
Q 1406 3038 1543 3061 
Q 1681 3084 1819 3084 
Q 2600 3084 3056 2656 
Q 3513 2228 3513 1497 
Q 3513 744 3044 326 
Q 2575 -91 1722 -91 
Q 1428 -91 1123 -41 
Q 819 9 494 109 
L 494 744 
Q 775 591 1075 516 
Q 1375 441 1709 441 
Q 2250 441 2565 725 
Q 2881 1009 2881 1497 
Q 2881 1984 2565 2268 
Q 2250 2553 1709 2553 
Q 1456 2553 1204 2497 
Q 953 2441 691 2322 
L 691 4666 
z
" transform="scale(0.015625)"/>
     </defs>
     <use xlink:href="#DejaVuSans-30"/>
     <use xlink:href="#DejaVuSans-2e" x="63.623047"/>
     <use xlink:href="#DejaVuSans-35" x="95.410156"/>
    </g>
   </g>
   <g id="text_5">
    <!-- 1 -->
    <g style="fill: #ff8888" transform="translate(286.752187 286.478182) rotate(-90) scale(0.06 -0.06)">
     <defs>
      <path id="DejaVuSans-31" d="M 794 531 
L 1825 531 
L 1825 4091 
L 703 3866 
L 703 4441 
L 1819 4666 
L 2450 4666 
L 2450 531 
L 3481 531 
L 3481 0 
L 794 0 
L 794 531 
z
" transform="scale(0.015625)"/>
     </defs>
     <use xlink:href="#DejaVuSans-31"/>
    </g>
   </g>
   <g id="text_6">
    <!-- 1 -->
    <g style="fill: #ff8888" transform="translate(338.790998 184.942948) rotate(-36.870814) scale(0.06 -0.06)">
     <use xlink:href="#DejaVuSans-31"/>
    </g>
   </g>
   <g id="text_7">
    <!-- 1 -->
    <g style="fill: #ff8888" transform="translate(337.167764 389.839587) rotate(-143.129186) scale(0.06 -0.06)">
     <use xlink:href="#DejaVuSans-31"/>
    </g>
   </g>
   <g id="text_8">
    <!-- 2 -->
    <g style="fill: #ff8888" transform="translate(371.297642 286.478182) rotate(-90) scale(0.06 -0.06)">
     <use xlink:href="#DejaVuSans-32"/>
    </g>
   </g>
   <g id="text_9">
    <!-- 5 -->
    <g style="fill: #ff8888" transform="translate(455.843097 286.478182) rotate(-90) scale(0.06 -0.06)">
     <use xlink:href="#DejaVuSans-35"/>
    </g>
   </g>
   <g id="text_10">
    <!-- 10 -->
    <g style="fill: #ff8888" transform="translate(494.272849 286.478182) rotate(-90) scale(0.06 -0.06)">
     <use xlink:href="#DejaVuSans-31"/>
     <use xlink:href="#DejaVuSans-30" x="63.623047"/>
    </g>
   </g>
   <g id="text_11">
    <!-- 0.2 -->
    <g style="fill: #ff8888" transform="translate(63.606838 195.854646) rotate(-157.380135) scale(0.06 -0.06)">
     <use xlink:href="#DejaVuSans-30"/>
     <use xlink:href="#DejaVuSans-2e" x="63.623047"/>
     <use xlink:href="#DejaVuSans-32" x="95.410156"/>
    </g>
   </g>
   <g id="text_12">
    <!-- -0.2 -->
    <g style="fill: #ff8888" transform="translate(54.798953 383.815306) rotate(-22.619865) scale(0.06 -0.06)">
     <defs>
      <path id="DejaVuSans-2d" d="M 313 2009 
L 1997 2009 
L 1997 1497 
L 313 1497 
L 313 2009 
z
" transform="scale(0.015625)"/>
     </defs>
     <use xlink:href="#DejaVuSans-2d"/>
     <use xlink:href="#DejaVuSans-30" x="36.083984"/>
     <use xlink:href="#DejaVuSans-2e" x="99.707031"/>
     <use xlink:href="#DejaVuSans-32" x="131.494141"/>
    </g>
   </g>
   <g id="text_13">
    <!-- 0.5 -->
    <g style="fill: #ff8888" transform="translate(141.458148 94.690551) rotate(-126.869898) scale(0.06 -0.06)">
     <use xlink:href="#DejaVuSans-30"/>
     <use xlink:href="#DejaVuSans-2e" x="63.623047"/>
     <use xlink:href="#DejaVuSans-35" x="95.410156"/>
    </g>
   </g>
   <g id="text_14">
    <!-- -0.5 -->
    <g style="fill: #ff8888" transform="translate(135.733023 488.942949) rotate(-53.130102) scale(0.06 -0.06)">
     <use xlink:href="#DejaVuSans-2d"/>
     <use xlink:href="#DejaVuSans-30" x="36.083984"/>
     <use xlink:href="#DejaVuSans-2e" x="99.707031"/>
     <use xlink:href="#DejaVuSans-35" x="131.494141"/>
    </g>
   </g>
   <g id="text_15">
    <!-- 1 -->
    <g style="fill: #ff8888" transform="translate(286.752187 39.702955) rotate(-90) scale(0.06 -0.06)">
     <use xlink:href="#DejaVuSans-31"/>
    </g>
   </g>
   <g id="text_16">
    <!-- -1 -->
    <g style="fill: #ff8888" transform="translate(286.752187 540.114545) rotate(-90) scale(0.06 -0.06)">
     <use xlink:href="#DejaVuSans-2d"/>
     <use xlink:href="#DejaVuSans-31" x="36.083984"/>
    </g>
   </g>
   <g id="text_17">
    <!-- 2 -->
    <g style="fill: #ff8888" transform="translate(435.979977 88.613676) rotate(-53.130102) scale(0.06 -0.06)">
     <use xlink:href="#DejaVuSans-32"/>
    </g>
   </g>
   <g id="text_18">
    <!-- -2 -->
    <g style="fill: #ff8888" transform="translate(438.270477 490.440324) rotate(-126.869898) scale(0.06 -0.06)">
     <use xlink:href="#DejaVuSans-2d"/>
     <use xlink:href="#DejaVuSans-32" x="36.083984"/>
    </g>
   </g>
   <g id="text_19">
    <!-- 5 -->
    <g style="fill: #ff8888" transform="translate(516.717345 191.349309) rotate(-22.619865) scale(0.06 -0.06)">
     <use xlink:href="#DejaVuSans-35"/>
    </g>
   </g>
   <g id="text_20">
    <!-- -5 -->
    <g style="fill: #ff8888" transform="translate(520.241191 386.11896) rotate(-157.380135) scale(0.06 -0.06)">
     <use xlink:href="#DejaVuSans-2d"/>
     <use xlink:href="#DejaVuSans-35" x="36.083984"/>
    </g>
   </g>
   <g id="text_21">
    <!-- 10 -->
    <g style="fill: #ff8888" transform="translate(527.391275 238.365105) rotate(-11.421186) scale(0.06 -0.06)">
     <use xlink:href="#DejaVuSans-31"/>
     <use xlink:href="#DejaVuSans-30" x="63.623047"/>
    </g>
   </g>
   <g id="text_22">
    <!-- -10 -->
    <g style="fill: #ff8888" transform="translate(534.875087 339.146776) rotate(-168.578814) scale(0.06 -0.06)">
     <use xlink:href="#DejaVuSans-2d"/>
     <use xlink:href="#DejaVuSans-31" x="36.083984"/>
     <use xlink:href="#DejaVuSans-30" x="99.707031"/>
    </g>
   </g>
  </g>
 </g>
 <defs>
  <clipPath id="p422ee3e382">
   <rect x="10.8" y="10.8" width="554.4" height="554.4"/>
  </clipPath>
 </defs>
</svg>
