<?xml version="1.0" encoding="utf-8" standalone="no"?>
<!DOCTYPE svg PUBLIC "-//W3C//DTD SVG 1.1//EN"
  "http://www.w3.org/Graphics/SVG/1.1/DTD/svg11.dtd">
<!-- Created with matplotlib (https://matplotlib.org/) -->
<svg height="141.135pt" version="1.1" viewBox="0 0 352.41 141.135" width="352.41pt" xmlns="http://www.w3.org/2000/svg" xmlns:xlink="http://www.w3.org/1999/xlink">
 <metadata>
  <rdf:RDF xmlns:cc="http://creativecommons.org/ns#" xmlns:dc="http://purl.org/dc/elements/1.1/" xmlns:rdf="http://www.w3.org/1999/02/22-rdf-syntax-ns#">
   <cc:Work>
    <dc:type rdf:resource="http://purl.org/dc/dcmitype/StillImage"/>
    <dc:date>2021-05-25T14:31:04.169318</dc:date>
    <dc:format>image/svg+xml</dc:format>
    <dc:creator>
     <cc:Agent>
      <dc:title>Matplotlib v3.3.0, https://matplotlib.org/</dc:title>
     </cc:Agent>
    </dc:creator>
   </cc:Work>
  </rdf:RDF>
 </metadata>
 <defs>
  <style type="text/css">*{stroke-linecap:butt;stroke-linejoin:round;}</style>
 </defs>
 <g id="figure_1">
  <g id="patch_1">
   <path d="M 0 141.135 
L 352.41 141.135 
L 352.41 0 
L 0 0 
z
" style="fill:none;"/>
  </g>
  <g id="axes_1">
   <g id="patch_2">
    <path clip-path="url(#p8bceee589f)" d="M 221.4 73.5 
C 222.414064 73.5 223.387632 73.096735 224.104683 72.379683 
C 224.821735 71.662632 225.225 70.689064 225.225 69.675 
C 225.225 68.660936 224.821735 67.687368 224.104683 66.970317 
C 223.387632 66.253265 222.414064 65.85 221.4 65.85 
" style="fill:none;stroke:#000000;stroke-linejoin:miter;stroke-width:2;"/>
   </g>
   <g id="patch_3">
    <path clip-path="url(#p8bceee589f)" d="M 221.4 81.15 
C 222.414064 81.15 223.387632 80.746735 224.104683 80.029683 
C 224.821735 79.312632 225.225 78.339064 225.225 77.325 
C 225.225 76.310936 224.821735 75.337368 224.104683 74.620317 
C 223.387632 73.903265 222.414064 73.5 221.4 73.5 
" style="fill:none;stroke:#000000;stroke-linejoin:miter;stroke-width:2;"/>
   </g>
   <g id="patch_4">
    <path clip-path="url(#p8bceee589f)" d="M 221.4 88.8 
C 222.414064 88.8 223.387632 88.396735 224.104683 87.679683 
C 224.821735 86.962632 225.225 85.989064 225.225 84.975 
C 225.225 83.960936 224.821735 82.987368 224.104683 82.270317 
C 223.387632 81.553265 222.414064 81.15 221.4 81.15 
" style="fill:none;stroke:#000000;stroke-linejoin:miter;stroke-width:2;"/>
   </g>
   <g id="patch_5">
    <path clip-path="url(#p8bceee589f)" d="M 221.4 96.45 
C 222.414064 96.45 223.387632 96.046735 224.104683 95.329683 
C 224.821735 94.612632 225.225 93.639064 225.225 92.625 
C 225.225 91.610936 224.821735 90.637368 224.104683 89.920317 
C 223.387632 89.203265 222.414064 88.8 221.4 88.8 
" style="fill:none;stroke:#000000;stroke-linejoin:miter;stroke-width:2;"/>
   </g>
   <g id="patch_6">
    <path clip-path="url(#p8bceee589f)" d="M 175.5 35.25 
L 175.5 39.075 
L 89.82 39.075 
L 89.82 31.425 
L 175.5 31.425 
L 175.5 35.25 
L 89.82 35.25 
z
" style="stroke:#000000;stroke-linejoin:miter;"/>
   </g>
   <g id="patch_7">
    <path clip-path="url(#p8bceee589f)" d="M 89.82 127.05 
L 89.82 123.225 
L 175.5 123.225 
L 175.5 130.875 
L 89.82 130.875 
L 89.82 127.05 
L 175.5 127.05 
z
" style="stroke:#000000;stroke-linejoin:miter;"/>
   </g>
   <g id="line2d_1">
    <path clip-path="url(#p8bceee589f)" d="M 252 35.25 
L 259.65 35.25 
L 267.3 35.25 
" style="fill:none;stroke:#000000;stroke-linecap:round;stroke-width:2;"/>
   </g>
   <g id="line2d_2">
    <path clip-path="url(#p8bceee589f)" d="M 267.3 35.25 
L 267.3 65.85 
L 274.95 65.85 
L 274.95 96.45 
L 259.65 96.45 
L 259.65 65.85 
L 267.3 65.85 
M 267.3 96.45 
L 267.3 127.05 
" style="fill:none;stroke:#000000;stroke-linecap:round;stroke-width:2;"/>
   </g>
   <g id="line2d_3">
    <path clip-path="url(#p8bceee589f)" d="M 267.3 127.05 
L 259.65 127.05 
L 252 127.05 
" style="fill:none;stroke:#000000;stroke-linecap:round;stroke-width:2;"/>
   </g>
   <g id="line2d_4">
    <path clip-path="url(#p8bceee589f)" d="M 252 35.25 
L 236.7 35.25 
L 221.4 35.25 
" style="fill:none;stroke:#000000;stroke-linecap:round;stroke-width:2;"/>
   </g>
   <g id="line2d_5">
    <path clip-path="url(#p8bceee589f)" d="M 221.4 35.25 
L 221.4 65.85 
M 221.4 96.45 
L 221.4 127.05 
" style="fill:none;stroke:#000000;stroke-linecap:round;stroke-width:2;"/>
   </g>
   <g id="line2d_6">
    <path clip-path="url(#p8bceee589f)" d="M 221.4 127.05 
L 236.7 127.05 
L 252 127.05 
" style="fill:none;stroke:#000000;stroke-linecap:round;stroke-width:2;"/>
   </g>
   <g id="line2d_7">
    <path clip-path="url(#p8bceee589f)" d="M 221.4 127.05 
L 206.1 127.05 
L 190.8 127.05 
" style="fill:none;stroke:#000000;stroke-linecap:round;stroke-width:2;"/>
   </g>
   <g id="line2d_8">
    <path clip-path="url(#p8bceee589f)" d="M 221.4 35.25 
L 206.1 35.25 
L 190.8 35.25 
" style="fill:none;stroke:#000000;stroke-linecap:round;stroke-width:2;"/>
   </g>
   <g id="line2d_9">
    <path clip-path="url(#p8bceee589f)" d="M 190.8 35.25 
L 183.15 35.25 
L 175.5 35.25 
" style="fill:none;stroke:#000000;stroke-linecap:round;stroke-width:2;"/>
   </g>
   <g id="line2d_10">
    <path clip-path="url(#p8bceee589f)" d="M 175.5 35.25 
L 175.5 39.075 
L 89.82 39.075 
L 89.82 31.425 
L 175.5 31.425 
L 175.5 35.25 
L 89.82 35.25 
" style="fill:none;stroke:#000000;stroke-linecap:round;stroke-width:2;"/>
   </g>
   <g id="line2d_11">
    <path clip-path="url(#p8bceee589f)" d="M 89.82 35.25 
L 82.17 35.25 
L 74.52 35.25 
" style="fill:none;stroke:#000000;stroke-linecap:round;stroke-width:2;"/>
   </g>
   <g id="line2d_12">
    <path clip-path="url(#p8bceee589f)" d="M 74.52 127.05 
L 82.17 127.05 
L 89.82 127.05 
" style="fill:none;stroke:#000000;stroke-linecap:round;stroke-width:2;"/>
   </g>
   <g id="line2d_13">
    <path clip-path="url(#p8bceee589f)" d="M 89.82 127.05 
L 89.82 123.225 
L 175.5 123.225 
L 175.5 130.875 
L 89.82 130.875 
L 89.82 127.05 
L 175.5 127.05 
" style="fill:none;stroke:#000000;stroke-linecap:round;stroke-width:2;"/>
   </g>
   <g id="line2d_14">
    <path clip-path="url(#p8bceee589f)" d="M 175.5 127.05 
L 183.15 127.05 
L 190.8 127.05 
" style="fill:none;stroke:#000000;stroke-linecap:round;stroke-width:2;"/>
   </g>
   <g id="line2d_15">
    <path clip-path="url(#p8bceee589f)" d="M 74.52 35.25 
L 46.674 35.25 
M 46.674 42.9 
L 46.674 27.6 
M 41.166 42.9 
L 41.166 27.6 
M 41.166 35.25 
L 13.32 35.25 
" style="fill:none;stroke:#000000;stroke-linecap:round;stroke-width:2;"/>
   </g>
   <g id="line2d_16">
    <path clip-path="url(#p8bceee589f)" d="M 74.52 127.05 
L 43.92 127.05 
L 13.32 127.05 
" style="fill:none;stroke:#000000;stroke-linecap:round;stroke-width:2;"/>
   </g>
   <g id="text_1">
    <!-- $(20-10j)\Omega$ -->
    <g transform="translate(278.01 84.45)scale(0.12 -0.12)">
     <defs>
      <path d="M 31 75.875 
Q 24.46875 64.65625 21.28125 53.65625 
Q 18.109375 42.671875 18.109375 31.390625 
Q 18.109375 20.125 21.3125 9.0625 
Q 24.515625 -2 31 -13.1875 
L 23.1875 -13.1875 
Q 15.875 -1.703125 12.234375 9.375 
Q 8.59375 20.453125 8.59375 31.390625 
Q 8.59375 42.28125 12.203125 53.3125 
Q 15.828125 64.359375 23.1875 75.875 
z
" id="DejaVuSans-40"/>
      <path d="M 19.1875 8.296875 
L 53.609375 8.296875 
L 53.609375 0 
L 7.328125 0 
L 7.328125 8.296875 
Q 12.9375 14.109375 22.625 23.890625 
Q 32.328125 33.6875 34.8125 36.53125 
Q 39.546875 41.84375 41.421875 45.53125 
Q 43.3125 49.21875 43.3125 52.78125 
Q 43.3125 58.59375 39.234375 62.25 
Q 35.15625 65.921875 28.609375 65.921875 
Q 23.96875 65.921875 18.8125 64.3125 
Q 13.671875 62.703125 7.8125 59.421875 
L 7.8125 69.390625 
Q 13.765625 71.78125 18.9375 73 
Q 24.125 74.21875 28.421875 74.21875 
Q 39.75 74.21875 46.484375 68.546875 
Q 53.21875 62.890625 53.21875 53.421875 
Q 53.21875 48.921875 51.53125 44.890625 
Q 49.859375 40.875 45.40625 35.40625 
Q 44.1875 33.984375 37.640625 27.21875 
Q 31.109375 20.453125 19.1875 8.296875 
z
" id="DejaVuSans-50"/>
      <path d="M 31.78125 66.40625 
Q 24.171875 66.40625 20.328125 58.90625 
Q 16.5 51.421875 16.5 36.375 
Q 16.5 21.390625 20.328125 13.890625 
Q 24.171875 6.390625 31.78125 6.390625 
Q 39.453125 6.390625 43.28125 13.890625 
Q 47.125 21.390625 47.125 36.375 
Q 47.125 51.421875 43.28125 58.90625 
Q 39.453125 66.40625 31.78125 66.40625 
z
M 31.78125 74.21875 
Q 44.046875 74.21875 50.515625 64.515625 
Q 56.984375 54.828125 56.984375 36.375 
Q 56.984375 17.96875 50.515625 8.265625 
Q 44.046875 -1.421875 31.78125 -1.421875 
Q 19.53125 -1.421875 13.0625 8.265625 
Q 6.59375 17.96875 6.59375 36.375 
Q 6.59375 54.828125 13.0625 64.515625 
Q 19.53125 74.21875 31.78125 74.21875 
z
" id="DejaVuSans-48"/>
      <path d="M 10.59375 35.5 
L 73.1875 35.5 
L 73.1875 27.203125 
L 10.59375 27.203125 
z
" id="DejaVuSans-8722"/>
      <path d="M 12.40625 8.296875 
L 28.515625 8.296875 
L 28.515625 63.921875 
L 10.984375 60.40625 
L 10.984375 69.390625 
L 28.421875 72.90625 
L 38.28125 72.90625 
L 38.28125 8.296875 
L 54.390625 8.296875 
L 54.390625 0 
L 12.40625 0 
z
" id="DejaVuSans-49"/>
      <path d="M 14.5 54.6875 
L 23.484375 54.6875 
L 12.703125 -0.984375 
L 12.640625 -1.21875 
Q 10.84375 -10.546875 8.5 -14.015625 
Q 6.296875 -17.28125 2.0625 -19.03125 
Q -2.15625 -20.796875 -7.90625 -20.796875 
L -11.28125 -20.796875 
L -9.8125 -13.1875 
L -7.515625 -13.1875 
Q -2.25 -13.1875 -0.015625 -10.984375 
Q 2.203125 -8.796875 3.71875 -0.984375 
z
M 18.703125 75.984375 
L 27.6875 75.984375 
L 25.484375 64.59375 
L 16.5 64.59375 
z
" id="DejaVuSans-Oblique-106"/>
      <path d="M 8.015625 75.875 
L 15.828125 75.875 
Q 23.140625 64.359375 26.78125 53.3125 
Q 30.421875 42.28125 30.421875 31.390625 
Q 30.421875 20.453125 26.78125 9.375 
Q 23.140625 -1.703125 15.828125 -13.1875 
L 8.015625 -13.1875 
Q 14.5 -2 17.703125 9.0625 
Q 20.90625 20.125 20.90625 31.390625 
Q 20.90625 42.671875 17.703125 53.65625 
Q 14.5 64.65625 8.015625 75.875 
z
" id="DejaVuSans-41"/>
      <path d="M 72.609375 8.6875 
L 72.609375 0 
L 43.3125 0 
L 43.3125 8.6875 
Q 51.953125 13.421875 56.78125 21.53125 
Q 61.625 29.640625 61.625 39.5 
Q 61.625 51.21875 55.171875 58.296875 
Q 48.734375 65.375 38.1875 65.375 
Q 27.640625 65.375 21.171875 58.265625 
Q 14.703125 51.171875 14.703125 39.5 
Q 14.703125 29.640625 19.53125 21.53125 
Q 24.421875 13.421875 33.109375 8.6875 
L 33.109375 0 
L 3.8125 0 
L 3.8125 8.6875 
L 19.390625 8.6875 
Q 11.671875 15.484375 8.109375 22.75 
Q 4.59375 30.03125 4.59375 39.015625 
Q 4.59375 54.546875 13.96875 64.15625 
Q 23.296875 73.78125 38.1875 73.78125 
Q 52.984375 73.78125 62.40625 64.15625 
Q 71.78125 54.59375 71.78125 39.5 
Q 71.78125 30.03125 68.3125 22.796875 
Q 64.84375 15.578125 56.984375 8.6875 
z
" id="DejaVuSans-937"/>
     </defs>
     <use transform="translate(0 0.015625)" xlink:href="#DejaVuSans-40"/>
     <use transform="translate(39.013672 0.015625)" xlink:href="#DejaVuSans-50"/>
     <use transform="translate(102.636719 0.015625)" xlink:href="#DejaVuSans-48"/>
     <use transform="translate(185.742188 0.015625)" xlink:href="#DejaVuSans-8722"/>
     <use transform="translate(289.013672 0.015625)" xlink:href="#DejaVuSans-49"/>
     <use transform="translate(352.636719 0.015625)" xlink:href="#DejaVuSans-48"/>
     <use transform="translate(416.259766 0.015625)" xlink:href="#DejaVuSans-Oblique-106"/>
     <use transform="translate(444.042969 0.015625)" xlink:href="#DejaVuSans-41"/>
     <use transform="translate(483.056641 0.015625)" xlink:href="#DejaVuSans-937"/>
    </g>
   </g>
   <g id="text_2">
    <!-- $30.0j\Omega$ -->
    <g transform="translate(179.1 84.45)scale(0.12 -0.12)">
     <defs>
      <path d="M 40.578125 39.3125 
Q 47.65625 37.796875 51.625 33 
Q 55.609375 28.21875 55.609375 21.1875 
Q 55.609375 10.40625 48.1875 4.484375 
Q 40.765625 -1.421875 27.09375 -1.421875 
Q 22.515625 -1.421875 17.65625 -0.515625 
Q 12.796875 0.390625 7.625 2.203125 
L 7.625 11.71875 
Q 11.71875 9.328125 16.59375 8.109375 
Q 21.484375 6.890625 26.8125 6.890625 
Q 36.078125 6.890625 40.9375 10.546875 
Q 45.796875 14.203125 45.796875 21.1875 
Q 45.796875 27.640625 41.28125 31.265625 
Q 36.765625 34.90625 28.71875 34.90625 
L 20.21875 34.90625 
L 20.21875 43.015625 
L 29.109375 43.015625 
Q 36.375 43.015625 40.234375 45.921875 
Q 44.09375 48.828125 44.09375 54.296875 
Q 44.09375 59.90625 40.109375 62.90625 
Q 36.140625 65.921875 28.71875 65.921875 
Q 24.65625 65.921875 20.015625 65.03125 
Q 15.375 64.15625 9.8125 62.3125 
L 9.8125 71.09375 
Q 15.4375 72.65625 20.34375 73.4375 
Q 25.25 74.21875 29.59375 74.21875 
Q 40.828125 74.21875 47.359375 69.109375 
Q 53.90625 64.015625 53.90625 55.328125 
Q 53.90625 49.265625 50.4375 45.09375 
Q 46.96875 40.921875 40.578125 39.3125 
z
" id="DejaVuSans-51"/>
      <path d="M 10.6875 12.40625 
L 21 12.40625 
L 21 0 
L 10.6875 0 
z
" id="DejaVuSans-46"/>
     </defs>
     <use transform="translate(0 0.015625)" xlink:href="#DejaVuSans-51"/>
     <use transform="translate(63.623047 0.015625)" xlink:href="#DejaVuSans-48"/>
     <use transform="translate(127.246094 0.015625)" xlink:href="#DejaVuSans-46"/>
     <use transform="translate(159.033203 0.015625)" xlink:href="#DejaVuSans-48"/>
     <use transform="translate(222.65625 0.015625)" xlink:href="#DejaVuSans-Oblique-106"/>
     <use transform="translate(250.439453 0.015625)" xlink:href="#DejaVuSans-937"/>
    </g>
   </g>
   <g id="text_3">
    <!-- $Z_0=50\Omega,\, 0.3\lambda$ -->
    <g transform="translate(88.98 25.869375)scale(0.12 -0.12)">
     <defs>
      <path d="M 13.09375 72.90625 
L 70.3125 72.90625 
L 68.890625 65.375 
L 12.40625 8.296875 
L 58.890625 8.296875 
L 57.328125 0 
L -2.203125 0 
L -0.78125 7.515625 
L 55.71875 64.59375 
L 11.53125 64.59375 
z
" id="DejaVuSans-Oblique-90"/>
      <path d="M 10.59375 45.40625 
L 73.1875 45.40625 
L 73.1875 37.203125 
L 10.59375 37.203125 
z
M 10.59375 25.484375 
L 73.1875 25.484375 
L 73.1875 17.1875 
L 10.59375 17.1875 
z
" id="DejaVuSans-61"/>
      <path d="M 10.796875 72.90625 
L 49.515625 72.90625 
L 49.515625 64.59375 
L 19.828125 64.59375 
L 19.828125 46.734375 
Q 21.96875 47.46875 24.109375 47.828125 
Q 26.265625 48.1875 28.421875 48.1875 
Q 40.625 48.1875 47.75 41.5 
Q 54.890625 34.8125 54.890625 23.390625 
Q 54.890625 11.625 47.5625 5.09375 
Q 40.234375 -1.421875 26.90625 -1.421875 
Q 22.3125 -1.421875 17.546875 -0.640625 
Q 12.796875 0.140625 7.71875 1.703125 
L 7.71875 11.625 
Q 12.109375 9.234375 16.796875 8.0625 
Q 21.484375 6.890625 26.703125 6.890625 
Q 35.15625 6.890625 40.078125 11.328125 
Q 45.015625 15.765625 45.015625 23.390625 
Q 45.015625 31 40.078125 35.4375 
Q 35.15625 39.890625 26.703125 39.890625 
Q 22.75 39.890625 18.8125 39.015625 
Q 14.890625 38.140625 10.796875 36.28125 
z
" id="DejaVuSans-53"/>
      <path d="M 11.71875 12.40625 
L 22.015625 12.40625 
L 22.015625 4 
L 14.015625 -11.625 
L 7.71875 -11.625 
L 11.71875 4 
z
" id="DejaVuSans-44"/>
      <path d="M 36.71875 67.4375 
L 48.828125 0 
L 39.3125 0 
L 31.84375 40.4375 
L 5.125 0 
L -4.390625 0 
L 29.734375 52.4375 
L 28.03125 62.109375 
Q 26.953125 68.265625 21.734375 68.265625 
L 17.046875 68.265625 
L 18.5 75.984375 
L 24.21875 75.875 
Q 35.203125 75.734375 36.71875 67.4375 
z
" id="DejaVuSans-Oblique-955"/>
     </defs>
     <use transform="translate(0 0.015625)" xlink:href="#DejaVuSans-Oblique-90"/>
     <use transform="translate(68.505859 -16.390625)scale(0.7)" xlink:href="#DejaVuSans-48"/>
     <use transform="translate(135.258789 0.015625)" xlink:href="#DejaVuSans-61"/>
     <use transform="translate(238.530273 0.015625)" xlink:href="#DejaVuSans-53"/>
     <use transform="translate(302.15332 0.015625)" xlink:href="#DejaVuSans-48"/>
     <use transform="translate(365.776367 0.015625)" xlink:href="#DejaVuSans-937"/>
     <use transform="translate(442.192383 0.015625)" xlink:href="#DejaVuSans-44"/>
     <use transform="translate(509.69759 0.015625)" xlink:href="#DejaVuSans-48"/>
     <use transform="translate(573.320637 0.015625)" xlink:href="#DejaVuSans-46"/>
     <use transform="translate(605.107747 0.015625)" xlink:href="#DejaVuSans-51"/>
     <use transform="translate(668.730793 0.015625)" xlink:href="#DejaVuSans-Oblique-955"/>
    </g>
   </g>
   <g id="text_4">
    <!-- $-60.0j\Omega$ -->
    <g transform="translate(19.26 22.02)scale(0.12 -0.12)">
     <defs>
      <path d="M 33.015625 40.375 
Q 26.375 40.375 22.484375 35.828125 
Q 18.609375 31.296875 18.609375 23.390625 
Q 18.609375 15.53125 22.484375 10.953125 
Q 26.375 6.390625 33.015625 6.390625 
Q 39.65625 6.390625 43.53125 10.953125 
Q 47.40625 15.53125 47.40625 23.390625 
Q 47.40625 31.296875 43.53125 35.828125 
Q 39.65625 40.375 33.015625 40.375 
z
M 52.59375 71.296875 
L 52.59375 62.3125 
Q 48.875 64.0625 45.09375 64.984375 
Q 41.3125 65.921875 37.59375 65.921875 
Q 27.828125 65.921875 22.671875 59.328125 
Q 17.53125 52.734375 16.796875 39.40625 
Q 19.671875 43.65625 24.015625 45.921875 
Q 28.375 48.1875 33.59375 48.1875 
Q 44.578125 48.1875 50.953125 41.515625 
Q 57.328125 34.859375 57.328125 23.390625 
Q 57.328125 12.15625 50.6875 5.359375 
Q 44.046875 -1.421875 33.015625 -1.421875 
Q 20.359375 -1.421875 13.671875 8.265625 
Q 6.984375 17.96875 6.984375 36.375 
Q 6.984375 53.65625 15.1875 63.9375 
Q 23.390625 74.21875 37.203125 74.21875 
Q 40.921875 74.21875 44.703125 73.484375 
Q 48.484375 72.75 52.59375 71.296875 
z
" id="DejaVuSans-54"/>
     </defs>
     <use transform="translate(0 0.015625)" xlink:href="#DejaVuSans-8722"/>
     <use transform="translate(83.789062 0.015625)" xlink:href="#DejaVuSans-54"/>
     <use transform="translate(147.412109 0.015625)" xlink:href="#DejaVuSans-48"/>
     <use transform="translate(211.035156 0.015625)" xlink:href="#DejaVuSans-46"/>
     <use transform="translate(242.822266 0.015625)" xlink:href="#DejaVuSans-48"/>
     <use transform="translate(306.445312 0.015625)" xlink:href="#DejaVuSans-Oblique-106"/>
     <use transform="translate(334.228516 0.015625)" xlink:href="#DejaVuSans-937"/>
    </g>
   </g>
   <g id="patch_8">
    <path clip-path="url(#p8bceee589f)" d="M 221.4 37.545 
C 222.008641 37.545 222.592436 37.303184 223.02281 36.87281 
C 223.453184 36.442436 223.695 35.858641 223.695 35.25 
C 223.695 34.641359 223.453184 34.057564 223.02281 33.62719 
C 222.592436 33.196816 222.008641 32.955 221.4 32.955 
C 220.791359 32.955 220.207564 33.196816 219.77719 33.62719 
C 219.346816 34.057564 219.105 34.641359 219.105 35.25 
C 219.105 35.858641 219.346816 36.442436 219.77719 36.87281 
C 220.207564 37.303184 220.791359 37.545 221.4 37.545 
z
" style="stroke:#000000;stroke-linejoin:miter;stroke-width:2;"/>
   </g>
   <g id="patch_9">
    <path clip-path="url(#p8bceee589f)" d="M 221.4 129.345 
C 222.008641 129.345 222.592436 129.103184 223.02281 128.67281 
C 223.453184 128.242436 223.695 127.658641 223.695 127.05 
C 223.695 126.441359 223.453184 125.857564 223.02281 125.42719 
C 222.592436 124.996816 222.008641 124.755 221.4 124.755 
C 220.791359 124.755 220.207564 124.996816 219.77719 125.42719 
C 219.346816 125.857564 219.105 126.441359 219.105 127.05 
C 219.105 127.658641 219.346816 128.242436 219.77719 128.67281 
C 220.207564 129.103184 220.791359 129.345 221.4 129.345 
z
" style="stroke:#000000;stroke-linejoin:miter;stroke-width:2;"/>
   </g>
  </g>
 </g>
 <defs>
  <clipPath id="p8bceee589f">
   <rect height="126.735" width="325.0944" x="7.2" y="7.2"/>
  </clipPath>
 </defs>
</svg>
